<svg xmlns="http://www.w3.org/2000/svg" height="800" width="1200" viewBox="-10.8 -18 93.6 108"><path fill="#007db8" d="M33.479 27.0589l-8.942 6.879c-.917-3.44-3.899-5.963-7.568-5.963h-6.4199v15.822h6.4199c3.6688 0 6.8785-2.5234 7.5664-5.9629l8.9434 6.8789 8.9434-6.8789v5.9629h10.088V40.586h-6.6484V27.975h-3.6699v5.9609l-8.4844 6.8809-1.835-1.606 4.129-3.211 4.3555-3.4395-2.5215-2.0625-8.4844 6.6484-1.834-1.6055 8.4844-6.4199-2.5234-2.0625zm-19.49 4.125h2.752c.5733 0 1.1325.1307 1.6484.3672.516.2365.9874.5798 1.3887 1.0098.4013.43.7316.945.961 1.5254.2292.5804.3574 1.2262.3574 1.914a5.2288 5.2288 0 01-.3262 1.8165c-.2114.5697-.5193 1.0928-.9063 1.537-.3869.4444-.8522.8102-1.3789 1.0646-.5266.2544-1.1136.3965-1.744.3965h-2.752v-9.631zm49.987 9.4031v3.2102H53.887v-15.822h3.6688v12.611h6.4204zM36 0C16.28 0 0 16.28 0 36s16.051 36 36 36 36-16.051 36-36S55.72 0 36 0zm0 3.6699c2.2356 0 4.4168.2244 6.5234.6543a32.1275 32.1275 0 016.0742 1.8809 32.2181 32.2181 0 015.4922 2.9785 32.3975 32.3975 0 014.7832 3.9434 32.4037 32.4037 0 013.9434 4.7832 32.2195 32.2195 0 012.9785 5.4922 32.1363 32.1363 0 011.8809 6.0742c.43 2.1067.6543 4.2878.6543 6.5234s-.2244 4.4168-.6543 6.5234a32.1282 32.1282 0 01-1.8809 6.0742 32.2181 32.2181 0 01-2.9785 5.4922 32.3975 32.3975 0 01-3.9434 4.7832 32.4037 32.4037 0 01-4.7832 3.9434 32.2195 32.2195 0 01-5.4922 2.9785 32.1363 32.1363 0 01-6.0742 1.8809c-2.1067.43-4.2878.6543-6.5234.6543s-4.4168-.2244-6.5234-.6543a31.9098 31.9098 0 01-6.075-1.878 32.2508 32.2508 0 01-5.492-2.979 32.353 32.353 0 01-8.7264-8.726 32.2555 32.2555 0 01-2.9785-5.492 32.1404 32.1404 0 01-1.8809-6.075c-.4299-2.106-.6543-4.287-.6543-6.523 0-2.236.2244-4.417.6543-6.523a32.1332 32.1332 0 011.8809-6.075 32.2555 32.2555 0 012.9785-5.492 32.353 32.353 0 013.9434-4.783 32.353 32.353 0 014.783-3.9434 32.2555 32.2555 0 015.492-2.9785 32.1404 32.1404 0 016.075-1.8809c2.106-.4299 4.287-.6543 6.523-.6543z"/></svg>