<svg xmlns="http://www.w3.org/2000/svg" height="800" width="1200" viewBox="-74.25 -25.54275 643.5 153.2565"><path d="M207.467 21.915c-8.938 0-19.103 4.143-25.314 12.439l.004-.017-.004.004.004-11.123h-21.318v77.633h21.314V56.676c0-7.95 6.165-16.401 17.578-16.401 8.82 0 17.948 6.135 17.948 16.401v44.175h21.318V52.726c0-17.855-12.775-30.811-31.53-30.811m183.043 1.306l-19.272 52.882-19.272-52.882h-24.352l31.942 77.608h23.36l31.942-77.608zM97.197 46.608c3.63-4.875 9.413-7.736 16.397-7.736 7.682 0 13.51 4.387 16.524 10.862L92.873 65.186c-1.017-7.93 1.012-14.132 4.324-18.578m40.955 30.374c-8.972 6.64-14.098 8.224-22.28 8.224-7.363 0-13.128-2.286-17.192-6.295l54.5-22.608c-1.19-8.426-4.388-15.952-9.308-21.676-7.161-8.316-17.76-12.716-30.664-12.716-23.44 0-41.116 17.293-41.116 40.132 0 23.432 17.717 40.128 43.465 40.128 14.426 0 29.176-6.837 36.076-14.826zM70.06 81.276H21.609V0H0v100.85h70.06zm383.077-41.097c-11.905 0-20.55 9.022-20.55 21.856 0 12.254 9.157 21.856 20.836 21.856 11.909 0 20.549-9.27 20.549-21.856 0-12.254-9.153-21.856-20.835-21.856m0 61.98c-23.314 0-41.582-17.369-41.582-40.124 0-22.499 18.394-40.123 41.868-40.123C476.737 21.912 495 39.28 495 62.035c0 22.495-18.39 40.123-41.863 40.123M289.008 40.179c-11.905 0-20.545 9.022-20.545 21.856 0 12.254 9.153 21.856 20.835 21.856 11.905 0 20.545-9.27 20.545-21.856 0-12.254-9.153-21.856-20.835-21.856m0 61.98c-23.314 0-41.577-17.369-41.577-40.124 0-22.499 18.389-40.123 41.867-40.123 23.31 0 41.577 17.368 41.577 40.123 0 22.495-18.393 40.123-41.867 40.123" fill="#e60012"/></svg>