<svg xmlns="http://www.w3.org/2000/svg" height="800" width="1200" viewBox="-7.5634425 -1.6684625 65.549835 10.010775"><defs><clipPath clipPathUnits="userSpaceOnUse" id="a"><path d="M0 0h612v792H0z"/></clipPath></defs><path d="M18.34695 6.53779H17.0526v-4.5907h-1.67393V.83761h4.6422v1.10948h-1.67393zm6.84883-.00006h-1.3021V.83755h1.3021zm22.97539-1.12481h2.25178v1.125h-3.55353V.83775h1.30175z" fill="#100f0d"/><g clip-path="url(#a)" transform="matrix(.35278 0 0 -.35278 -35.94061 179.59075)"><path d="M185.5858 506.7018h5.979c4.411 0 8.8-2.336 8.8-8.035 0-5.372-4.302-8.123-8.582-8.123h-6.197zm3.581-12.991h2.289c3.079 0 5.131 1.921 5.131 4.978 0 2.904-2.074 4.868-5.044 4.868h-2.376z" fill="#100f0d"/></g><path d="M41.96899 6.53779h1.43121L41.05176.83761h-1.34408l-2.37102 5.70018h1.39241l.42016-1.12466h2.40348zm-2.47086-2.13748l.85866-2.2292.85055 2.2292zM6.67381 1.66815L5.00553 3.33679 3.33689 1.66815 5.00553.00022z" fill="#100f0d"/><path d="M6.67381 5.00522L5.00553 6.67386 3.33689 5.00522l1.66864-1.66864zM3.33693 1.66829L1.66829 3.33693 0 1.66829 1.66829 0zm6.6736 0L8.34224 3.33693 6.6736 1.66829 8.34224 0z" fill="#100f0d"/></svg>